<svg width="48" height="50" viewBox="0 0 48 50" fill="none" xmlns="http://www.w3.org/2000/svg">
<path d="M36.0226 0.91012C39.4289 1.03616 43.2036 1.32015 45.5546 3.78829C47.8756 6.22509 48.006 9.95144 47.9998 13.3168C47.9816 23.3188 47.9633 33.3209 47.945 43.323C47.9411 45.4341 47.7058 47.9566 45.849 48.9612C44.7174 49.5734 43.3375 49.3875 42.0711 49.1602C34.3697 47.7778 26.7708 45.4462 19.9987 41.5268C13.2266 37.6075 7.29915 32.0288 3.67578 25.0939C0.0524096 18.1589 -1.12342 9.8232 1.1953 2.34937C2.14789 -0.71972 12.8697 0.0534627 16.1553 0.17502C22.7777 0.420048 29.4001 0.665075 36.0226 0.91012Z" fill="#FED349"/>
<path d="M33.7339 41.8162C32.954 41.8162 32.1742 41.6315 31.4816 41.2628C29.7746 40.3538 28.9427 38.6632 28.1382 37.0286C27.5388 35.8101 26.9725 34.6597 26.0814 33.8481C24.7495 32.6349 22.749 32.2994 21.1553 32.1425C20.8037 32.1082 20.4504 32.079 20.0962 32.0498C18.4923 31.9178 16.8337 31.7813 15.2786 31.1444C13.3505 30.3552 11.4484 28.4977 11.544 26.1278C11.58 25.2391 11.8913 24.4468 12.1926 23.6804C12.4665 22.9833 12.725 22.3254 12.7411 21.671C12.7774 20.2129 11.5814 18.9641 10.865 18.3493C10.4111 17.9596 9.9279 17.609 9.41619 17.2378C8.67233 16.6983 7.90315 16.1402 7.22919 15.4506C5.77892 13.9664 5.18839 12.1485 5.65017 10.5876C6.23357 8.61423 7.98837 7.85006 9.53671 7.17609C10.0181 6.96641 10.4728 6.76851 10.8707 6.54527C12.9265 5.3924 15.371 4.43243 17.9192 6.05387C18.59 6.48072 19.1434 7.01955 19.679 7.54052C20.159 8.00838 20.6129 8.44984 21.125 8.79074C23.4903 10.3662 26.699 9.52926 28.4014 8.89023C29.3285 8.54255 30.2589 8.11249 31.1582 7.69671C32.7444 6.96354 34.3847 6.20542 36.1545 5.8153C37.9303 5.42305 39.4552 5.52967 40.6861 6.13017C42.1047 6.82161 43.3424 8.47193 42.9633 10.2881C42.7234 11.4352 41.9535 12.2205 41.2089 12.9793C40.7731 13.4236 40.3613 13.8433 40.0817 14.3105C39.0319 16.0642 39.9355 18.3732 40.373 19.2843C40.7096 19.9857 41.1069 20.6504 41.5277 21.3543C42.1314 22.3638 42.7554 23.4076 43.1784 24.5605C43.8598 26.4176 44.0071 29.183 42.1795 30.8637C41.6578 31.3437 41.0491 31.6632 40.4604 31.9723C39.7493 32.3453 39.0782 32.698 38.733 33.2668C38.3379 33.9179 38.4032 34.7891 38.4717 35.7112C38.5198 36.3531 38.569 37.0167 38.4777 37.6846C38.2687 39.2123 37.286 40.5973 35.9131 41.2995C35.2391 41.6439 34.4863 41.8162 33.7339 41.8162ZM15.0533 6.65369C13.9571 6.65369 12.8302 7.12227 11.5857 7.81977C11.1236 8.07938 10.6136 8.30117 10.1201 8.51619C8.74294 9.11564 7.44208 9.68191 7.0516 11.002C6.68752 12.2334 7.44457 13.5799 8.27473 14.4293C8.86168 15.0301 9.54778 15.5279 10.2745 16.055C10.7873 16.4269 11.3179 16.8117 11.8171 17.2403C12.9322 18.1971 14.2513 19.749 14.2024 21.7071C14.18 22.6192 13.8612 23.4305 13.5527 24.215C13.2842 24.8986 13.0303 25.544 13.0046 26.187C12.9376 27.8409 14.4235 29.2152 15.8324 29.7922C17.1786 30.3431 18.6542 30.4647 20.2164 30.5935C20.578 30.623 20.9389 30.653 21.298 30.6883C23.117 30.867 25.416 31.2649 27.0656 32.7676C28.1614 33.7657 28.8161 35.0962 29.4494 36.3831C30.184 37.8755 30.878 39.2855 32.1685 39.9727C33.1006 40.469 34.3091 40.4787 35.2477 39.9983C36.1873 39.5176 36.8866 38.5317 37.03 37.4865C37.1002 36.9715 37.0585 36.4124 37.0143 35.8201C36.9354 34.7607 36.846 33.56 37.4836 32.5088C38.0391 31.5927 38.9645 31.107 39.7811 30.6784C40.3099 30.4006 40.8095 30.1385 41.1904 29.7883C42.4035 28.6722 42.3739 26.6114 41.8062 25.0641C41.4307 24.04 40.8684 23.0996 40.2735 22.1044C39.8542 21.4033 39.4209 20.6787 39.0554 19.917C37.915 17.5403 37.8319 15.2235 38.8279 13.56C39.1966 12.9438 39.6891 12.4417 40.1655 11.956C40.7903 11.3191 41.3804 10.7175 41.5327 9.98936C41.7488 8.95523 40.9461 7.88294 40.0457 7.44398C39.1182 6.99145 37.9147 6.9237 36.469 7.2425C34.854 7.59838 33.3567 8.29054 31.7716 9.02335C30.848 9.4502 29.8927 9.89202 28.9149 10.259C26.9508 10.996 23.2229 11.9435 20.3149 10.0076C19.6901 9.59141 19.1663 9.08147 18.6595 8.58795C18.155 8.09691 17.6782 7.63298 17.1347 7.28709C16.4387 6.8442 15.7522 6.65369 15.0533 6.65369Z" fill="#FF8A48"/>
<path d="M30.479 28.6283C28.2813 28.6283 26.626 27.8059 25.9695 26.351C25.7199 25.7976 25.6439 25.2242 25.5701 24.6693C25.4852 24.0282 25.4118 23.4747 25.0919 23.1245C24.7118 22.708 24.0407 22.6285 23.2633 22.5365C22.9096 22.4948 22.544 22.4513 22.1839 22.3703C19.6556 21.803 17.8719 19.1631 18.2891 16.6053C18.4571 15.5793 19.0747 14.3348 20.3057 13.9194C21.5288 13.5079 22.7116 14.1041 23.662 14.5833C23.7786 14.6422 23.8941 14.7003 24.0086 14.7563C24.9044 15.1935 26.6378 15.8996 28.1811 15.7188C28.5766 15.6724 28.9346 15.4984 29.349 15.2973C29.7387 15.1079 30.1417 14.9121 30.6227 14.8016C31.9682 14.4942 33.8567 14.9974 34.6911 16.3728C35.3601 17.475 35.0898 18.5904 34.8512 19.5746C34.7239 20.0999 34.6038 20.5956 34.6355 21.0371C34.6737 21.567 34.9258 22.1118 35.1929 22.6884C35.5708 23.5058 35.9995 24.4318 35.8354 25.4735C35.6825 26.4477 34.9971 27.3516 34.0025 27.8915C33.1125 28.3751 32.1126 28.5181 31.3413 28.5883C31.046 28.6151 30.7579 28.6283 30.479 28.6283ZM21.1686 15.2424C21.0321 15.2424 20.8998 15.2616 20.7725 15.3044C20.1555 15.5126 19.8264 16.2622 19.7316 16.8406C19.4399 18.63 20.735 20.5474 22.5041 20.9443C22.7904 21.0089 23.1039 21.046 23.4355 21.0852C24.3677 21.1957 25.4239 21.3209 26.171 22.1389C26.8 22.8279 26.9163 23.704 27.019 24.4771C27.0814 24.9478 27.1406 25.3925 27.3018 25.7498C27.8573 26.9808 29.682 27.2728 31.2086 27.1327C31.8402 27.0753 32.6493 26.9633 33.3051 26.6071C33.8938 26.2876 34.3103 25.7662 34.392 25.2467C34.4868 24.6429 34.199 24.0218 33.8663 23.3025C33.5561 22.6317 33.2348 21.9382 33.1778 21.1419C33.1296 20.4729 33.283 19.8414 33.4309 19.2305C33.6274 18.4185 33.7975 17.7175 33.4417 17.1309C32.9717 16.356 31.7746 16.0382 30.9498 16.2258C30.631 16.2993 30.3186 16.4512 29.9873 16.6117C29.5212 16.8381 28.9924 17.0948 28.352 17.1701C26.4349 17.3958 24.4069 16.5774 23.3671 16.0693H23.3667C23.2473 16.0108 23.126 15.9498 23.0041 15.8885C22.3486 15.5579 21.7228 15.2424 21.1686 15.2424Z" fill="#45539F"/>
</svg>
